<?xml version="1.0" standalone="no"?>
<!DOCTYPE svg PUBLIC "-//W3C//DTD SVG 20010904//EN"
 "http://www.w3.org/TR/2001/REC-SVG-20010904/DTD/svg10.dtd">
<svg version="1.0" xmlns="http://www.w3.org/2000/svg"
 width="400.000000pt" height="400.000000pt" viewBox="0 0 400.000000 400.000000"
 preserveAspectRatio="xMidYMid meet">
<metadata>
Created by potrace 1.11, written by Peter Selinger 2001-2013
</metadata>
<g transform="translate(0.000000,400.000000) scale(0.100000,-0.100000)"
fill="#000000" stroke="none">
<path d="M824 3341 c-368 -176 -428 -211 -360 -211 12 0 28 -6 35 -12 8 -7 11
-8 8 -2 -4 7 26 11 101 10 94 -1 109 -3 124 -21 10 -11 17 -15 18 -7 0 6 -4
12 -10 12 -5 0 -10 4 -10 8 0 5 23 9 50 8 46 0 55 -5 51 -30 -1 -5 5 -4 13 3
8 7 21 9 28 5 10 -6 10 -5 1 7 -9 12 -5 14 28 14 42 1 46 -4 27 -24 -11 -10
-10 -11 5 -6 9 4 17 13 17 21 0 19 50 14 51 -6 0 -13 1 -13 7 0 4 8 19 16 35
16 25 1 32 -7 28 -30 -1 -5 5 -4 13 3 8 7 21 9 28 5 10 -6 10 -5 1 7 -10 12 3
14 93 15 99 0 110 -3 105 -30 -1 -5 5 -4 13 3 8 7 21 9 28 5 10 -6 10 -5 1 7
-9 12 -5 14 28 14 42 1 46 -4 27 -24 -11 -10 -10 -11 5 -6 9 4 17 13 17 19 0
7 11 12 25 12 17 0 24 -4 21 -13 -3 -7 -1 -13 4 -13 6 0 10 6 10 14 0 9 11 13
30 12 25 -1 29 -4 24 -21 -4 -15 -3 -17 5 -6 8 13 12 13 28 1 15 -12 15 -11
-2 8 -14 17 -15 23 -5 20 8 -2 20 -10 27 -18 6 -8 15 -12 19 -7 4 4 2 7 -4 7
-7 0 -12 4 -12 8 0 5 7 9 15 9 14 0 20 -11 16 -31 -1 -5 5 -4 13 3 8 7 21 9
28 5 10 -6 10 -5 1 7 -9 12 -5 14 28 14 42 1 46 -4 27 -24 -11 -10 -10 -11 5
-6 9 4 17 13 17 21 0 19 50 14 51 -6 0 -13 1 -13 7 0 4 8 19 16 35 16 25 1 32
-7 28 -30 -1 -5 5 -4 13 3 8 7 21 9 28 5 10 -6 10 -5 1 7 -9 12 -6 14 17 14
16 1 26 -3 24 -7 -3 -4 -1 -8 5 -8 5 0 12 6 14 13 4 10 6 10 6 0 1 -7 6 -13
12 -13 5 0 8 4 5 8 -3 5 1 9 9 9 20 0 19 -14 -2 -27 -17 -11 -17 -11 0 -6 10
3 21 6 23 6 2 0 4 7 4 16 0 8 5 12 10 9 6 -4 7 -11 4 -17 -4 -7 -2 -8 5 -4 6
4 9 11 7 15 -3 4 10 7 28 7 19 -1 32 -4 29 -8 -2 -5 0 -8 6 -8 5 0 12 6 14 13
4 10 6 10 6 0 1 -7 6 -13 12 -13 5 0 8 4 5 8 -3 5 1 9 9 9 20 0 19 -14 -2 -27
-17 -11 -17 -11 0 -6 10 3 21 6 23 6 2 0 4 7 4 16 0 8 5 12 10 9 6 -4 7 -11 4
-17 -4 -7 -2 -8 5 -4 6 4 9 11 7 15 -3 4 19 7 47 7 40 0 56 -5 69 -21 10 -11
17 -15 18 -7 0 6 -4 12 -10 12 -5 0 -10 4 -10 8 0 5 23 9 50 8 46 0 55 -5 51
-30 -1 -5 5 -4 13 3 8 7 21 9 28 5 10 -6 10 -5 1 7 -9 12 -5 14 28 14 42 1 46
-4 27 -24 -11 -10 -10 -11 5 -6 9 4 17 13 17 21 0 19 50 14 51 -6 0 -13 1 -13
7 0 4 8 19 16 35 16 25 1 32 -7 28 -30 -1 -5 5 -4 13 3 8 7 21 9 28 5 10 -6
10 -5 1 7 -10 12 -3 14 43 14 42 1 54 -2 55 -15 0 -9 4 -6 9 8 8 19 23 28 33
20 1 -2 15 7 31 19 16 13 32 21 36 18 4 -3 11 2 14 11 4 9 9 14 13 10 3 -3 13
3 20 14 8 11 18 18 23 15 5 -3 13 3 19 12 6 10 11 13 11 7 0 -5 7 -19 15 -30
13 -16 14 -16 9 -1 -4 11 -2 16 7 14 8 -2 11 -2 6 0 -4 3 -4 10 0 16 4 7 -1 6
-10 -2 -9 -7 -17 -9 -17 -3 0 14 28 23 35 12 4 -6 11 -10 16 -10 6 0 3 7 -5
16 -17 17 -21 28 -7 20 5 -3 12 1 15 9 3 8 9 14 13 13 17 -4 53 14 47 24 -4 6
-2 8 3 5 6 -4 18 2 27 12 18 19 39 22 53 6 4 -4 3 -5 -3 -2 -17 9 -49 -29 -33
-39 7 -4 10 -3 7 2 -3 5 0 15 8 22 8 7 14 10 14 6 0 -3 6 -1 13 5 8 6 17 8 21
4 4 -4 4 1 0 11 -5 12 -9 14 -14 6 -5 -8 -9 -6 -14 6 -4 10 -4 15 0 11 4 -4
18 2 30 14 16 15 24 17 29 8 5 -7 4 -10 -3 -5 -6 3 -13 2 -16 -3 -3 -5 3 -11
14 -14 11 -3 18 -1 14 4 -5 9 4 12 39 12 14 0 15 3 6 13 -8 10 -15 11 -24 4
-9 -7 -15 -7 -19 -1 -4 5 -2 12 4 16 5 3 10 3 10 -1 0 -4 9 1 20 11 11 10 20
14 20 9 0 -5 7 -1 14 9 13 17 14 17 21 0 5 -10 7 -22 6 -26 -1 -5 3 -6 9 -2 7
4 7 12 2 18 -12 17 -8 42 6 39 7 -1 12 4 12 10 0 8 8 4 16 -7 9 -11 14 -13 10
-5 -3 8 -9 23 -12 33 -6 16 -68 17 -1113 16 l-1106 -1 -391 -187z"/>
<path d="M3411 3458 c5 -10 11 -18 12 -18 2 0 3 8 4 18 1 10 -5 19 -12 19 -10
0 -11 -5 -4 -19z"/>
<path d="M3365 3441 c-3 -6 -10 -9 -15 -6 -5 3 -12 0 -16 -6 -4 -8 -3 -9 4 -5
7 4 12 2 12 -4 0 -7 7 -4 16 5 9 9 14 18 11 21 -3 3 -8 0 -12 -5z"/>
<path d="M3395 3164 c-187 -124 -346 -233 -352 -242 -10 -12 -13 -267 -13
-1198 0 -650 3 -1189 6 -1198 3 -9 15 -16 26 -16 13 0 17 -4 12 -12 -6 -9 -3
-9 9 0 9 8 22 10 28 6 7 -4 9 -3 6 3 -4 6 1 14 10 17 9 4 20 1 24 -6 5 -8 8
-5 6 9 0 12 -4 20 -8 17 -4 -2 -10 0 -13 5 -4 5 1 8 10 7 8 -1 20 -9 25 -17 7
-11 9 -11 9 -1 0 7 5 10 10 7 6 -4 7 -11 4 -17 -4 -7 -2 -8 4 -4 9 5 8 12 0
26 -8 12 -15 15 -19 9 -4 -7 -9 -4 -12 6 -4 9 -3 14 3 10 6 -3 13 0 16 8 4 12
12 13 35 7 22 -7 31 -5 35 5 3 7 14 12 24 10 14 -3 17 1 13 12 -4 10 -2 14 4
10 5 -3 10 0 10 8 0 21 -6 19 -38 -14 -24 -25 -30 -27 -40 -15 -10 12 -9 13 5
8 9 -4 16 -3 14 2 -2 5 0 9 3 9 3 0 20 12 38 28 18 15 36 25 41 22 4 -3 11 2
14 10 3 8 11 14 18 13 7 -2 12 4 10 12 -2 8 0 12 4 7 4 -4 17 2 28 12 12 11
28 21 36 23 8 2 21 11 28 21 11 14 17 15 28 6 11 -9 12 -15 3 -26 -21 -24 -5
-20 20 6 13 14 17 22 8 18 -9 -3 -18 1 -22 11 -3 9 -3 14 0 10 3 -3 17 5 31
19 13 13 28 22 33 19 5 -3 12 1 15 9 3 8 11 14 18 13 7 -2 12 2 11 8 -1 6 4
11 12 11 10 0 10 -5 -3 -23 -9 -12 -20 -17 -23 -12 -3 5 -9 2 -13 -7 -3 -10
-11 -13 -18 -9 -9 5 -9 3 1 -9 14 -18 26 -23 16 -8 -3 5 -1 12 5 16 5 3 10 0
10 -7 1 -7 8 -1 16 15 8 15 20 27 25 27 6 0 9 9 6 20 -3 11 -2 18 3 15 4 -3
11 2 14 11 3 9 12 14 19 11 8 -3 19 4 26 14 6 11 16 17 21 14 6 -4 8 -10 6
-14 -3 -4 1 -8 9 -8 11 0 12 5 3 20 -6 12 -6 17 0 13 11 -6 26 21 23 41 -1 6
2 14 7 17 5 3 8 -5 7 -19 -2 -17 1 -22 12 -18 12 5 12 7 1 14 -11 8 -11 11 1
18 11 7 9 10 -9 16 l-23 7 24 14 c15 8 18 13 9 14 -13 0 -13 1 0 11 13 9 13
10 0 6 -8 -2 -14 -10 -12 -16 1 -6 -2 -11 -7 -11 -5 0 -8 14 -7 32 1 22 7 32
20 34 21 3 35 14 17 14 -7 0 -9 5 -5 12 4 7 3 8 -5 4 -6 -4 -9 -12 -6 -17 3
-5 -1 -6 -10 -3 -13 5 -13 9 -3 23 7 9 17 19 22 22 5 4 -2 10 -14 14 l-23 7
24 14 c15 8 18 13 9 14 -13 0 -13 1 0 11 13 9 13 10 0 6 -8 -2 -14 -10 -12
-16 1 -6 -2 -11 -7 -11 -5 0 -8 14 -7 32 1 22 7 32 20 34 21 3 35 14 17 14 -7
0 -9 5 -5 12 4 7 3 8 -5 4 -6 -4 -9 -12 -6 -17 3 -5 -1 -6 -10 -3 -13 5 -13 9
-3 23 7 9 17 19 22 22 5 4 -2 10 -14 14 l-23 7 24 14 c15 8 18 13 9 14 -13 0
-13 1 0 11 13 9 13 10 0 6 -8 -2 -14 -10 -12 -16 1 -6 -2 -11 -7 -11 -7 0 -8
27 -2 75 1 6 6 3 11 -5 6 -10 10 -11 10 -2 0 20 -4 27 -15 25 -6 -2 -10 16
-10 45 0 38 3 46 17 44 9 -1 19 2 23 8 3 6 0 7 -9 4 -10 -4 -16 -1 -16 9 0 8
5 17 12 19 7 3 5 7 -6 11 -9 4 -15 3 -12 -1 2 -4 0 -14 -5 -22 -7 -11 -8 -8
-5 10 2 18 9 24 22 23 15 -2 15 -1 -3 9 -25 12 -29 23 -11 34 7 5 8 3 3 -6 -5
-8 -4 -11 3 -6 5 3 12 0 15 -6 3 -7 4 -3 4 9 -1 12 -5 19 -9 17 -4 -3 -8 0 -8
6 0 6 -4 9 -8 6 -4 -2 -7 23 -7 57 1 52 4 62 18 59 19 -3 23 13 5 24 -7 4 -8
3 -4 -4 5 -8 2 -10 -8 -6 -23 9 -14 50 10 47 15 -2 15 -1 -3 9 -25 12 -29 23
-11 34 7 5 8 3 3 -6 -5 -8 -4 -11 3 -6 5 3 12 0 15 -6 3 -7 4 -3 4 9 -1 12 -5
19 -9 17 -4 -3 -8 0 -8 6 0 6 -4 9 -8 6 -4 -2 -7 23 -7 57 1 52 4 62 18 59 19
-3 23 13 5 24 -7 4 -8 3 -4 -4 5 -8 2 -10 -8 -6 -23 9 -14 50 10 47 15 -2 15
-1 -3 9 -25 12 -29 23 -11 34 7 5 8 3 3 -6 -5 -8 -4 -11 3 -6 5 3 12 0 15 -6
3 -7 4 -3 4 9 -1 12 -5 19 -9 17 -4 -3 -8 0 -8 6 0 6 -4 9 -8 6 -4 -2 -7 23
-7 57 1 52 4 62 18 59 19 -3 23 13 5 24 -7 4 -8 3 -4 -4 5 -8 2 -10 -8 -6 -23
9 -14 50 10 47 15 -2 15 -1 -3 9 -25 12 -29 23 -11 34 7 5 8 3 3 -6 -5 -8 -4
-11 3 -6 5 3 12 0 15 -6 3 -7 4 -3 4 9 -1 12 -5 19 -9 17 -4 -3 -8 0 -8 6 0 6
-4 9 -8 6 -4 -2 -7 23 -7 57 1 52 4 62 18 59 19 -3 23 13 5 24 -7 4 -8 3 -4
-4 5 -8 2 -10 -8 -6 -23 9 -14 50 10 47 15 -2 15 -1 -3 9 -25 12 -29 23 -11
34 7 5 8 3 3 -6 -5 -8 -4 -11 3 -6 5 3 12 0 15 -6 3 -7 4 -3 4 9 -1 12 -5 19
-9 17 -4 -3 -8 0 -8 6 0 6 -3 9 -8 6 -6 -3 -9 165 -3 184 1 3 8 -3 16 -14 13
-18 14 -18 12 2 0 11 -5 18 -9 16 -4 -3 -8 0 -8 6 0 6 -4 8 -10 5 -5 -3 -10
-1 -10 5 0 7 6 10 14 7 20 -8 28 4 14 20 -9 11 -9 16 1 23 10 6 8 10 -8 15
-23 7 -27 20 -9 31 7 5 8 3 3 -6 -5 -8 -4 -11 3 -6 5 3 12 0 15 -6 3 -7 4 -3
4 9 -1 12 -5 19 -9 17 -4 -3 -8 0 -8 6 0 6 -4 9 -8 6 -4 -2 -7 23 -7 57 1 52
4 62 18 59 19 -3 23 13 5 24 -7 4 -8 3 -4 -4 5 -8 2 -10 -8 -6 -23 9 -14 50
10 47 15 -2 15 -1 -3 9 -25 12 -29 23 -11 34 7 5 8 3 3 -6 -5 -8 -4 -11 3 -6
5 3 12 0 15 -6 3 -7 4 -3 4 9 -1 12 -5 19 -9 17 -4 -3 -8 0 -8 6 0 6 -4 9 -8
6 -10 -6 -9 85 1 102 5 7 4 12 -2 12 -6 0 -10 3 -10 8 1 4 1 22 0 40 -1 23 -6
32 -19 32 -9 0 -170 -102 -357 -226z m390 -274 c-4 -6 -1 -19 6 -28 12 -16 12
-16 -5 0 -16 14 -15 38 0 38 3 0 2 -5 -1 -10z m-656 -2354 c-2 -2 -15 -9 -29
-15 -24 -11 -24 -11 -6 3 16 13 49 24 35 12z"/>
<path d="M3262 3364 c10 -10 20 -16 22 -13 3 3 -5 11 -17 18 -21 13 -21 12 -5
-5z"/>
<path d="M3165 3321 c-25 -27 -26 -30 -7 -28 11 0 18 5 15 10 -3 4 3 17 13 28
28 31 11 22 -21 -10z"/>
<path d="M3805 3340 c-4 -6 -11 -8 -16 -5 -5 3 -6 -1 -3 -9 3 -9 11 -16 17
-16 6 0 7 3 4 7 -4 3 -2 12 4 20 6 7 9 13 6 13 -3 0 -9 -5 -12 -10z"/>
<path d="M3787 3293 c-11 -11 -8 -21 9 -27 14 -5 15 -4 5 8 -9 11 -9 15 1 19
7 3 8 6 2 6 -6 1 -14 -2 -17 -6z"/>
<path d="M3086 3273 c-3 -8 1 -10 11 -6 12 5 14 3 8 -8 -7 -11 -6 -12 7 -2 8
7 18 10 22 6 4 -4 4 0 1 9 -8 19 -42 20 -49 1z"/>
<path d="M3784 3235 c1 -14 5 -25 9 -25 4 0 10 0 13 0 4 0 1 6 -5 13 -6 8 -8
16 -5 19 3 3 1 9 -4 12 -5 3 -8 -6 -8 -19z"/>
<path d="M3005 3220 c-4 -6 -10 -8 -15 -5 -5 3 -14 -4 -20 -15 -6 -11 -15 -18
-21 -15 -5 4 -9 4 -9 1 0 -3 9 -10 20 -16 16 -9 19 -8 13 6 -4 12 -3 15 5 10
8 -5 10 -1 5 11 -6 16 -5 16 10 4 9 -7 17 -12 18 -10 8 41 6 49 -6 29z"/>
<path d="M2910 3157 c0 -6 -3 -7 -7 -4 -3 4 -15 -1 -26 -10 -10 -10 -21 -17
-23 -15 -20 12 -28 -17 -10 -35 4 -4 7 -3 6 2 -7 32 1 39 19 16 13 -17 18 -19
18 -7 0 9 -4 16 -9 16 -5 0 -7 4 -3 10 3 5 12 7 20 3 8 -3 15 0 15 7 0 7 8 10
19 7 13 -3 18 0 15 7 -6 15 -34 17 -34 3z"/>
<path d="M3783 3115 c0 -7 6 -11 14 -8 7 3 13 6 13 8 0 2 -6 5 -13 8 -8 3 -14
-1 -14 -8z"/>
<path d="M540 3109 c0 -5 -4 -8 -9 -4 -5 3 -12 1 -15 -4 -4 -5 2 -8 11 -7 15
3 33 26 19 26 -3 0 -6 -5 -6 -11z"/>
<path d="M595 3110 c-3 -5 -1 -10 4 -10 6 0 11 5 11 10 0 6 -2 10 -4 10 -3 0
-8 -4 -11 -10z"/>
<path d="M661 3111 c-8 -5 -9 -11 -3 -15 5 -3 12 1 16 9 6 17 6 18 -13 6z"/>
<path d="M690 3105 c-11 -13 -10 -14 4 -9 9 3 16 10 16 15 0 13 -6 11 -20 -6z"/>
<path d="M784 3109 c-3 -6 -3 -13 0 -16 3 -4 6 -1 6 5 0 6 7 9 15 6 8 -4 15
-4 15 -1 0 11 -30 16 -36 6z"/>
<path d="M901 3111 c-8 -5 -9 -11 -3 -15 5 -3 12 1 16 9 6 17 6 18 -13 6z"/>
<path d="M960 3116 c0 -2 7 -9 15 -16 9 -7 15 -8 15 -2 0 5 -7 12 -15 16 -8 3
-15 4 -15 2z"/>
<path d="M1024 3109 c-3 -6 -3 -13 0 -16 3 -4 6 -1 6 5 0 6 7 9 15 6 8 -4 15
-4 15 -1 0 11 -30 16 -36 6z"/>
<path d="M1141 3111 c-8 -5 -9 -11 -3 -15 5 -3 12 1 16 9 6 17 6 18 -13 6z"/>
<path d="M1170 3105 c-11 -13 -10 -14 4 -9 9 3 16 10 16 15 0 13 -6 11 -20 -6z"/>
<path d="M1235 3110 c-3 -5 -1 -10 4 -10 6 0 11 5 11 10 0 6 -2 10 -4 10 -3 0
-8 -4 -11 -10z"/>
<path d="M1381 3111 c-8 -5 -9 -11 -3 -15 5 -3 12 1 16 9 6 17 6 18 -13 6z"/>
<path d="M1701 3111 c-8 -5 -9 -11 -3 -15 5 -3 12 1 16 9 6 17 6 18 -13 6z"/>
<path d="M1760 3116 c0 -2 7 -9 15 -16 9 -7 15 -8 15 -2 0 5 -7 12 -15 16 -8
3 -15 4 -15 2z"/>
<path d="M1824 3109 c-3 -6 -3 -13 0 -16 3 -4 6 -1 6 5 0 6 7 9 15 6 8 -4 15
-4 15 -1 0 11 -30 16 -36 6z"/>
<path d="M2261 3111 c-8 -5 -9 -11 -3 -15 5 -3 12 1 16 9 6 17 6 18 -13 6z"/>
<path d="M2290 3105 c-11 -13 -10 -14 4 -9 9 3 16 10 16 15 0 13 -6 11 -20 -6z"/>
<path d="M2384 3109 c-3 -6 -3 -13 0 -16 3 -4 6 -1 6 5 0 6 7 9 15 6 8 -4 15
-4 15 -1 0 11 -30 16 -36 6z"/>
<path d="M2501 3111 c-8 -5 -9 -11 -3 -15 5 -3 12 1 16 9 6 17 6 18 -13 6z"/>
<path d="M2560 3116 c0 -2 7 -9 15 -16 9 -7 15 -8 15 -2 0 5 -7 12 -15 16 -8
3 -15 4 -15 2z"/>
<path d="M2624 3109 c-3 -6 -3 -13 0 -16 3 -4 6 -1 6 5 0 6 7 9 15 6 8 -4 15
-4 15 -1 0 11 -30 16 -36 6z"/>
<path d="M2741 3111 c-8 -5 -9 -11 -3 -15 5 -3 12 1 16 9 6 17 6 18 -13 6z"/>
<path d="M2770 3105 c-11 -13 -10 -14 4 -9 9 3 16 10 16 15 0 13 -6 11 -20 -6z"/>
<path d="M1266 3098 c3 -4 11 -5 19 -1 21 7 19 12 -4 10 -11 0 -18 -5 -15 -9z"/>
<path d="M3791 3046 c-9 -10 -8 -15 2 -19 8 -3 13 3 13 14 0 23 0 23 -15 5z"/>
<path d="M3784 2995 c1 -14 5 -25 9 -25 4 0 10 0 13 0 4 0 1 6 -5 13 -6 8 -8
16 -5 19 3 3 1 9 -4 12 -5 3 -8 -6 -8 -19z"/>
<path d="M250 2830 c-20 -20 -20 -33 -20 -1175 l0 -1155 32 -20 c18 -11 40
-17 50 -14 9 2 19 0 23 -6 3 -5 16 -15 28 -20 20 -10 20 -10 5 3 -10 8 -18 17
-18 21 0 9 23 3 38 -12 12 -11 18 -10 33 4 18 16 20 16 39 -1 11 -10 23 -15
27 -12 3 4 1 7 -5 7 -7 0 -12 5 -12 10 0 13 21 9 38 -8 11 -10 17 -10 29 0 9
7 40 13 69 13 48 1 58 -4 56 -26 -1 -3 6 -6 13 -6 11 0 12 4 3 14 -16 20 -2
28 17 9 19 -18 35 -21 35 -5 0 5 -4 8 -9 4 -5 -3 -12 -2 -14 2 -3 5 21 9 54 9
54 2 63 -2 61 -27 -1 -3 6 -6 13 -6 11 0 12 4 3 14 -16 20 -2 28 17 9 19 -18
35 -21 35 -5 0 5 -4 8 -9 4 -5 -3 -12 -2 -15 3 -8 14 108 8 123 -6 11 -10 16
-10 28 0 9 7 41 13 72 13 44 1 60 -3 74 -19 10 -12 16 -16 13 -9 -4 6 -3 13 1
16 5 2 1 2 -7 0 -8 -2 -11 0 -6 4 14 14 80 10 94 -6 12 -15 13 -15 9 0 -8 26
112 21 136 -6 10 -11 16 -15 13 -8 -4 6 -3 13 1 16 5 2 1 2 -7 0 -8 -2 -11 0
-6 4 14 14 80 10 94 -6 12 -15 13 -15 9 0 -4 13 5 15 54 15 52 -1 63 -5 61
-27 -1 -3 6 -6 13 -6 11 0 12 4 3 14 -16 20 -2 28 17 9 19 -18 35 -21 35 -5 0
5 -4 8 -9 4 -5 -3 -12 -2 -14 2 -3 5 21 9 54 9 54 2 63 -2 61 -27 -1 -3 6 -6
13 -6 11 0 12 4 3 14 -16 20 -2 28 17 9 19 -18 35 -21 35 -5 0 5 -4 8 -9 4 -5
-3 -12 -2 -15 3 -8 14 108 8 123 -6 11 -10 16 -10 28 0 9 7 41 13 72 13 44 1
60 -3 74 -19 10 -12 16 -16 13 -9 -4 6 -3 13 1 16 5 2 1 2 -7 0 -8 -2 -11 0
-6 4 14 14 80 10 94 -6 12 -15 13 -15 9 0 -8 26 112 21 136 -6 10 -11 16 -15
13 -8 -4 6 -3 13 1 16 5 2 1 2 -7 0 -8 -2 -11 0 -6 4 14 14 80 10 94 -6 12
-14 13 -14 9 0 -4 14 4 16 54 15 38 -1 58 -5 55 -12 -5 -13 23 -12 44 1 8 6
26 11 40 11 14 1 27 3 30 4 3 2 12 4 20 4 9 1 15 10 14 23 -1 13 2 20 6 18 4
-3 11 2 14 11 3 8 11 12 17 8 8 -4 9 -3 5 4 -4 6 -12 9 -20 6 -7 -3 -13 2 -13
10 0 8 4 13 9 10 4 -3 8 -1 8 5 0 5 6 11 13 14 6 2 3 3 -8 1 -18 -3 -20 2 -20
51 0 29 4 57 8 61 4 5 5 0 1 -11 -7 -17 -6 -18 8 -5 15 14 15 16 -3 24 -22 10
-24 22 -7 32 7 5 8 3 3 -6 -5 -8 -4 -11 3 -6 5 3 12 0 15 -6 3 -7 4 -3 4 9 -1
12 -4 20 -8 17 -3 -2 -7 8 -6 21 0 14 4 25 10 25 6 0 7 3 4 6 -4 4 -12 2 -19
-4 -11 -8 -13 -2 -13 33 0 24 4 47 9 52 5 5 6 2 1 -6 -5 -10 -4 -12 4 -7 6 4
9 12 6 17 -4 5 0 9 7 9 10 0 10 2 -1 9 -9 6 -10 10 -2 14 7 3 7 4 -1 2 -7 -1
-12 -8 -10 -14 1 -6 -2 -11 -7 -11 -7 0 -8 27 -2 75 1 6 6 3 11 -5 6 -10 10
-11 10 -2 0 24 -1 27 -13 25 -8 -2 -12 14 -12 46 -1 27 2 48 6 45 4 -2 5 -17
4 -34 -2 -23 3 -33 19 -41 20 -9 20 -9 3 4 -14 11 -15 16 -5 20 11 4 11 6 0 6
-8 1 -10 6 -5 14 12 19 12 38 1 31 -6 -4 -8 -1 -6 7 3 8 11 13 18 11 10 -2 11
0 3 10 -6 7 -9 21 -8 31 2 9 0 15 -5 12 -4 -2 -7 7 -7 20 0 14 4 25 10 25 6 0
7 3 4 6 -4 4 -12 2 -20 -4 -10 -9 -12 0 -12 44 0 50 7 66 23 48 4 -4 2 -4 -4
-1 -6 3 -11 -1 -11 -9 0 -10 4 -11 11 -4 12 12 18 42 6 35 -4 -2 -7 7 -7 20 0
14 4 25 10 25 6 0 7 3 4 6 -4 4 -13 1 -21 -5 -12 -10 -14 -9 -12 6 2 11 10 17
22 15 18 -2 18 -2 -1 9 -11 7 -21 13 -23 14 -8 6 25 51 36 49 7 -1 8 0 2 3 -5
2 -8 10 -4 16 3 7 -3 2 -14 -10 l-20 -22 2 29 c1 16 5 32 9 37 5 4 5 -1 1 -12
-7 -17 -6 -18 8 -5 15 14 15 16 -3 24 -22 10 -24 22 -7 32 7 5 8 3 3 -6 -5 -8
-4 -11 3 -6 5 3 12 0 15 -6 3 -7 4 -3 4 9 -1 12 -4 20 -8 17 -3 -2 -6 8 -6 21
0 14 4 25 10 25 6 0 7 3 4 6 -4 4 -12 2 -19 -4 -11 -8 -13 -2 -13 33 0 24 4
47 9 52 5 5 6 2 1 -6 -5 -10 -4 -12 4 -7 6 4 9 12 6 17 -4 5 0 9 7 9 10 0 10
2 -1 9 -9 6 -10 10 -2 14 7 3 7 4 -1 2 -7 -1 -12 -8 -10 -14 1 -6 -2 -11 -6
-11 -11 0 -9 116 1 127 5 4 5 -1 1 -12 -7 -17 -6 -18 8 -5 15 14 15 16 -3 24
-22 10 -24 22 -7 32 7 5 8 3 3 -6 -5 -8 -4 -11 3 -6 5 3 12 0 15 -6 3 -7 4 -3
4 9 -1 12 -4 20 -8 17 -3 -2 -6 8 -6 21 0 14 4 25 10 25 6 0 7 3 4 6 -4 4 -12
2 -19 -4 -11 -8 -13 -2 -13 33 0 24 4 47 9 52 5 5 6 2 1 -6 -5 -10 -4 -12 4
-7 6 4 9 12 6 17 -4 5 0 9 7 9 10 0 10 2 -1 9 -9 6 -10 10 -2 14 7 3 7 4 -1 2
-7 -1 -12 -8 -10 -14 1 -6 -2 -11 -6 -11 -11 0 -9 116 1 127 5 4 5 -1 1 -12
-7 -17 -6 -18 8 -5 15 14 15 16 -3 24 -22 10 -24 22 -7 32 7 5 8 3 3 -6 -5 -8
-4 -11 3 -6 5 3 12 0 15 -6 3 -7 4 -3 4 9 -1 12 -4 20 -8 17 -3 -2 -6 8 -6 21
0 14 4 25 10 25 6 0 7 3 4 6 -4 4 -12 2 -19 -4 -11 -8 -13 -2 -13 33 0 24 4
47 9 52 5 5 6 2 1 -6 -5 -10 -4 -12 4 -7 6 4 9 12 6 17 -4 5 0 9 7 9 10 0 10
2 -1 9 -9 6 -10 10 -2 14 7 3 7 4 -1 2 -7 -1 -12 -8 -10 -14 1 -6 -2 -11 -6
-11 -11 0 -9 116 1 127 5 4 5 -1 1 -12 -7 -17 -6 -18 8 -5 15 14 15 16 -3 24
-22 10 -24 22 -7 32 7 5 8 3 3 -6 -5 -8 -4 -11 3 -6 5 3 12 0 15 -6 3 -7 4 -3
4 9 -1 12 -4 20 -8 17 -3 -2 -7 8 -6 21 0 14 4 25 10 25 6 0 7 3 4 6 -4 4 -12
2 -19 -4 -11 -8 -13 -2 -13 33 0 24 4 47 9 52 5 5 6 2 1 -6 -5 -10 -4 -12 4
-7 6 4 9 12 6 17 -4 5 0 9 7 9 10 0 10 2 -1 9 -9 6 -10 10 -2 14 7 3 7 4 -1 2
-7 -1 -12 -8 -10 -14 1 -6 -2 -11 -6 -11 -10 0 -10 116 0 125 4 4 -7 22 -24
41 l-31 34 -1209 0 c-1195 0 -1208 0 -1228 -20z m2500 -304 c0 -3 -4 -8 -10
-11 -5 -3 -10 -1 -10 4 0 6 5 11 10 11 6 0 10 -2 10 -4z m0 -320 c0 -3 -4 -8
-10 -11 -5 -3 -10 -1 -10 4 0 6 5 11 10 11 6 0 10 -2 10 -4z m0 -320 c0 -3 -4
-8 -10 -11 -5 -3 -10 -1 -10 4 0 6 5 11 10 11 6 0 10 -2 10 -4z m0 -320 c0 -3
-4 -8 -10 -11 -5 -3 -10 -1 -10 4 0 6 5 11 10 11 6 0 10 -2 10 -4z m0 -240 c0
-3 -4 -8 -10 -11 -5 -3 -10 -1 -10 4 0 6 5 11 10 11 6 0 10 -2 10 -4z m0 -160
c0 -3 -4 -8 -10 -11 -5 -3 -10 -1 -10 4 0 6 5 11 10 11 6 0 10 -2 10 -4z m6
-38 c4 -7 3 -8 -4 -4 -7 4 -12 2 -12 -3 0 -6 5 -11 11 -11 5 0 7 -4 4 -10 -11
-18 -22 -11 -20 13 4 32 8 36 21 15z m-6 -362 c0 -3 -4 -8 -10 -11 -5 -3 -10
-1 -10 4 0 6 5 11 10 11 6 0 10 -2 10 -4z m-2340 -306 c0 -5 -2 -10 -4 -10 -3
0 -8 5 -11 10 -3 6 -1 10 4 10 6 0 11 -4 11 -10z m120 0 c0 -5 -2 -10 -4 -10
-3 0 -8 5 -11 10 -3 6 -1 10 4 10 6 0 11 -4 11 -10z m480 0 c0 -5 -2 -10 -4
-10 -3 0 -8 5 -11 10 -3 6 -1 10 4 10 6 0 11 -4 11 -10z m960 0 c0 -5 -2 -10
-4 -10 -3 0 -8 5 -11 10 -3 6 -1 10 4 10 6 0 11 -4 11 -10z m640 0 c0 -5 -2
-10 -4 -10 -3 0 -8 5 -11 10 -3 6 -1 10 4 10 6 0 11 -4 11 -10z"/>
<path d="M3784 2749 c0 -22 6 -41 13 -44 10 -3 11 0 4 14 -7 12 -6 22 2 31 9
10 9 11 0 6 -7 -4 -13 -3 -13 3 0 5 5 11 12 13 8 3 7 6 -3 10 -12 5 -15 -2
-15 -33z"/>
<path d="M2744 2728 c-1 -28 3 -38 15 -37 10 0 12 2 4 6 -10 3 -10 10 -2 25 8
15 8 19 0 14 -14 -9 -14 7 -1 20 7 7 7 11 -3 11 -8 0 -13 -14 -13 -39z"/>
<path d="M3784 2675 c1 -14 5 -25 9 -25 4 0 10 0 13 0 4 0 1 6 -5 13 -6 8 -8
16 -5 19 3 3 1 9 -4 12 -5 3 -8 -6 -8 -19z"/>
<path d="M2776 2633 c-6 -14 -5 -15 5 -6 7 7 10 15 7 18 -3 3 -9 -2 -12 -12z"/>
<path d="M2746 2594 c-8 -20 0 -32 14 -18 5 5 5 15 1 22 -6 11 -10 10 -15 -4z"/>
<path d="M3783 2555 c0 -7 6 -11 14 -8 7 3 13 6 13 8 0 2 -6 5 -13 8 -8 3 -14
-1 -14 -8z"/>
<path d="M3791 2486 c-9 -10 -8 -15 2 -19 8 -3 13 3 13 14 0 23 0 23 -15 5z"/>
<path d="M3784 2435 c1 -14 5 -25 9 -25 4 0 10 0 13 0 4 0 1 6 -5 13 -6 8 -8
16 -5 19 3 3 1 9 -4 12 -5 3 -8 -6 -8 -19z"/>
<path d="M2753 2418 c-15 -25 -13 -48 5 -48 13 0 14 2 3 9 -11 7 -10 11 5 20
11 6 13 11 6 11 -7 0 -10 5 -7 10 3 6 4 10 1 10 -3 0 -8 -6 -13 -12z"/>
<path d="M2776 2313 c-6 -14 -5 -15 5 -6 7 7 10 15 7 18 -3 3 -9 -2 -12 -12z"/>
<path d="M3783 2315 c0 -7 6 -11 14 -8 7 3 13 6 13 8 0 2 -6 5 -13 8 -8 3 -14
-1 -14 -8z"/>
<path d="M2746 2274 c-8 -20 0 -32 14 -18 5 5 5 15 1 22 -6 11 -10 10 -15 -4z"/>
<path d="M3791 2246 c-9 -10 -8 -15 2 -19 8 -3 13 3 13 14 0 23 0 23 -15 5z"/>
<path d="M3784 2195 c1 -14 5 -25 9 -25 4 0 10 0 13 0 4 0 1 6 -5 13 -6 8 -8
16 -5 19 3 3 1 9 -4 12 -5 3 -8 -6 -8 -19z"/>
<path d="M2753 2098 c-15 -25 -13 -48 5 -48 13 0 14 2 3 9 -11 7 -10 11 5 20
11 6 13 11 6 11 -7 0 -10 5 -7 10 3 6 4 10 1 10 -3 0 -8 -6 -13 -12z"/>
<path d="M3783 2075 c0 -7 6 -11 14 -8 7 3 13 6 13 8 0 2 -6 5 -13 8 -8 3 -14
-1 -14 -8z"/>
<path d="M3791 2006 c-9 -10 -8 -15 2 -19 8 -3 13 3 13 14 0 23 0 23 -15 5z"/>
<path d="M2776 1993 c-6 -14 -5 -15 5 -6 7 7 10 15 7 18 -3 3 -9 -2 -12 -12z"/>
<path d="M3784 1955 c1 -14 5 -25 9 -25 4 0 10 0 13 0 4 0 1 6 -5 13 -6 8 -8
16 -5 19 3 3 1 9 -4 12 -5 3 -8 -6 -8 -19z"/>
<path d="M2746 1954 c-8 -20 0 -32 14 -18 5 5 5 15 1 22 -6 11 -10 10 -15 -4z"/>
<path d="M3783 1835 c0 -7 6 -11 14 -8 7 3 13 6 13 8 0 2 -6 5 -13 8 -8 3 -14
-1 -14 -8z"/>
<path d="M2753 1778 c-15 -25 -13 -48 5 -48 13 0 14 2 3 9 -11 7 -10 11 5 20
11 6 13 11 6 11 -7 0 -10 5 -7 10 3 6 4 10 1 10 -3 0 -8 -6 -13 -12z"/>
<path d="M3791 1766 c-9 -10 -8 -15 2 -19 8 -3 13 3 13 14 0 23 0 23 -15 5z"/>
<path d="M3784 1715 c1 -14 5 -25 9 -25 4 0 10 0 13 0 4 0 1 6 -5 13 -6 8 -8
16 -5 19 3 3 1 9 -4 12 -5 3 -8 -6 -8 -19z"/>
<path d="M2776 1673 c-6 -14 -5 -15 5 -6 7 7 10 15 7 18 -3 3 -9 -2 -12 -12z"/>
<path d="M2746 1634 c-8 -20 0 -32 14 -18 5 5 5 15 1 22 -6 11 -10 10 -15 -4z"/>
<path d="M3784 1518 c1 -19 9 -33 21 -39 20 -10 20 -10 1 5 -15 12 -16 16 -5
16 12 0 12 2 -1 10 -12 8 -13 12 -2 19 11 7 11 9 -1 14 -10 4 -14 -2 -13 -25z"/>
<path d="M2749 1413 c-8 -9 -9 -14 -2 -10 6 4 13 1 16 -5 3 -7 4 -3 4 10 -1
26 -1 26 -18 5z"/>
<path d="M3780 1420 c0 -6 7 -10 15 -10 8 0 15 2 15 4 0 2 -7 6 -15 10 -8 3
-15 1 -15 -4z"/>
<path d="M3780 1260 c0 -6 7 -10 15 -10 8 0 15 2 15 4 0 2 -7 6 -15 10 -8 3
-15 1 -15 -4z"/>
<path d="M2746 1234 c-8 -20 0 -32 14 -18 5 5 5 15 1 22 -6 11 -10 10 -15 -4z"/>
<path d="M3780 1100 c0 -6 7 -10 15 -10 8 0 15 2 15 4 0 2 -7 6 -15 10 -8 3
-15 1 -15 -4z"/>
<path d="M3767 955 c-4 -8 -1 -17 5 -21 7 -4 8 -3 4 4 -10 16 6 15 24 0 8 -7
6 -3 -4 10 -23 26 -22 26 -29 7z"/>
<path d="M2740 940 c0 -6 7 -10 15 -10 8 0 15 2 15 4 0 2 -7 6 -15 10 -8 3
-15 1 -15 -4z"/>
<path d="M3710 921 c-13 -25 -13 -31 2 -31 6 0 8 3 5 6 -3 4 -2 15 4 25 5 11
7 19 5 19 -3 0 -10 -9 -16 -19z"/>
<path d="M3667 896 c-3 -8 0 -17 8 -20 9 -3 13 2 12 15 -2 22 -13 25 -20 5z"/>
<path d="M3730 899 c0 -5 5 -7 10 -4 6 3 10 8 10 11 0 2 -4 4 -10 4 -5 0 -10
-5 -10 -11z"/>
<path d="M2776 873 c-6 -14 -5 -15 5 -6 7 7 10 15 7 18 -3 3 -9 -2 -12 -12z"/>
<path d="M2746 834 c-8 -20 0 -32 14 -18 5 5 5 15 1 22 -6 11 -10 10 -15 -4z"/>
<path d="M3543 813 c-17 -6 -16 -20 0 -26 8 -3 14 3 14 14 1 10 1 19 0 18 -1
0 -8 -3 -14 -6z"/>
<path d="M3471 762 c-14 -26 -14 -32 1 -32 6 0 8 3 5 7 -4 3 -2 12 5 20 6 7 8
16 5 19 -3 3 -10 -3 -16 -14z"/>
<path d="M3400 712 c-22 -22 -40 -34 -40 -28 0 6 -5 3 -11 -7 -6 -9 -14 -15
-19 -12 -13 8 -20 -9 -9 -25 6 -11 9 -12 9 -2 0 7 5 10 12 6 6 -4 8 -3 4 4 -3
6 -2 13 4 17 5 3 10 0 10 -7 0 -7 6 -4 12 7 18 33 48 57 63 51 9 -3 13 2 12
15 -1 10 -2 19 -4 19 -1 0 -20 -17 -43 -38z"/>
<path d="M2752 657 c-14 -17 -9 -50 9 -55 8 -2 10 0 4 5 -15 12 -18 43 -3 39
7 -1 10 -1 5 1 -4 3 -5 9 -1 14 8 14 -2 11 -14 -4z"/>
<path d="M3190 576 c0 -2 7 -9 15 -16 13 -11 14 -10 9 4 -5 14 -24 23 -24 12z"/>
<path d="M2760 566 c0 -2 8 -10 18 -17 15 -13 16 -12 3 4 -13 16 -21 21 -21
13z"/>
<path d="M2740 505 c-7 -8 -9 -15 -5 -15 4 0 2 -6 -5 -14 -6 -8 -19 -12 -27
-9 -11 4 -14 2 -9 -5 8 -13 51 -10 51 4 0 5 4 15 8 22 5 6 5 12 0 12 -4 0 -1
5 7 10 8 5 10 10 4 10 -6 0 -17 -7 -24 -15z"/>
<path d="M553 443 c0 -17 5 -16 23 1 12 13 12 15 -4 13 -10 0 -19 -7 -19 -14z"/>
<path d="M756 443 c-6 -14 -5 -15 5 -6 7 7 10 15 7 18 -3 3 -9 -2 -12 -12z"/>
<path d="M787 446 c-4 -10 -1 -13 9 -9 7 3 14 9 14 14 0 14 -17 10 -23 -5z"/>
<path d="M916 443 c-6 -14 -5 -15 5 -6 7 7 10 15 7 18 -3 3 -9 -2 -12 -12z"/>
<path d="M947 446 c-4 -10 -1 -13 8 -9 8 3 12 9 9 14 -7 12 -11 11 -17 -5z"/>
<path d="M1033 443 c0 -17 5 -16 23 1 12 13 12 15 -4 13 -10 0 -19 -7 -19 -14z"/>
<path d="M1220 450 c-8 -5 -12 -12 -9 -15 4 -3 12 1 19 10 14 17 11 19 -10 5z"/>
<path d="M1285 449 c-11 -16 -1 -19 13 -3 7 8 8 14 3 14 -5 0 -13 -5 -16 -11z"/>
<path d="M1460 450 c-8 -5 -12 -12 -9 -15 4 -3 12 1 19 10 14 17 11 19 -10 5z"/>
<path d="M1525 449 c-11 -16 -1 -19 13 -3 7 8 8 14 3 14 -5 0 -13 -5 -16 -11z"/>
<path d="M1716 443 c-6 -14 -5 -15 5 -6 7 7 10 15 7 18 -3 3 -9 -2 -12 -12z"/>
<path d="M1747 446 c-4 -10 -1 -13 9 -9 15 6 19 23 5 23 -5 0 -11 -7 -14 -14z"/>
<path d="M1876 443 c-6 -14 -5 -15 5 -6 7 7 10 15 7 18 -3 3 -9 -2 -12 -12z"/>
<path d="M1907 446 c-4 -10 -1 -13 8 -9 8 3 12 9 9 14 -7 12 -11 11 -17 -5z"/>
<path d="M1993 443 c0 -17 5 -16 23 1 12 13 12 15 -4 13 -10 0 -19 -7 -19 -14z"/>
<path d="M2180 450 c-8 -5 -12 -12 -9 -15 4 -3 12 1 19 10 14 17 11 19 -10 5z"/>
<path d="M2245 449 c-11 -16 -1 -19 13 -3 7 8 8 14 3 14 -5 0 -13 -5 -16 -11z"/>
<path d="M2420 450 c-8 -5 -12 -12 -9 -15 4 -3 12 1 19 10 14 17 11 19 -10 5z"/>
<path d="M2485 449 c-11 -16 -1 -19 13 -3 7 8 8 14 3 14 -5 0 -13 -5 -16 -11z"/>
<path d="M2642 453 c-6 -2 -9 -9 -6 -15 4 -7 9 -6 14 2 6 9 13 9 31 0 23 -11
23 -10 5 4 -21 17 -24 17 -44 9z"/>
<path d="M610 439 c0 -5 5 -7 10 -4 6 3 10 8 10 11 0 2 -4 4 -10 4 -5 0 -10
-5 -10 -11z"/>
<path d="M1090 439 c0 -5 5 -7 10 -4 6 3 10 8 10 11 0 2 -4 4 -10 4 -5 0 -10
-5 -10 -11z"/>
<path d="M1330 439 c0 -5 5 -7 10 -4 6 3 10 8 10 11 0 2 -4 4 -10 4 -5 0 -10
-5 -10 -11z"/>
<path d="M1570 439 c0 -5 5 -7 10 -4 6 3 10 8 10 11 0 2 -4 4 -10 4 -5 0 -10
-5 -10 -11z"/>
<path d="M2050 439 c0 -5 5 -7 10 -4 6 3 10 8 10 11 0 2 -4 4 -10 4 -5 0 -10
-5 -10 -11z"/>
<path d="M2290 439 c0 -5 5 -7 10 -4 6 3 10 8 10 11 0 2 -4 4 -10 4 -5 0 -10
-5 -10 -11z"/>
<path d="M2530 439 c0 -5 5 -7 10 -4 6 3 10 8 10 11 0 2 -4 4 -10 4 -5 0 -10
-5 -10 -11z"/>
</g>
</svg>
