<svg id="圖層_1" data-name="圖層 1" xmlns="http://www.w3.org/2000/svg" width="100" height="100" viewBox="0 0 100 100">
  <defs>
    <style>
      .cls-1 {
        fill: #fff;
      }
    </style>
  </defs>
  <title>01</title>
  <g>
    <path class="cls-1" d="M50,88.36A3.79,3.79,0,0,1,48.45,88L10.35,70.71a3.73,3.73,0,0,1-2.18-3.39V32.68a3.73,3.73,0,0,1,2.18-3.39L48.45,12a3.78,3.78,0,0,1,3.09,0L89.65,29.29a3.73,3.73,0,0,1,2.18,3.39V67.32a3.73,3.73,0,0,1-2.18,3.39L51.54,88A3.78,3.78,0,0,1,50,88.36ZM15.63,64.92,50,80.54,84.37,64.92V35.08L50,19.46,15.63,35.08Z"/>
    <path class="cls-1" d="M50,54.66a3.64,3.64,0,0,1-1.55-.34L10.35,37a3.73,3.73,0,0,1,3.09-6.79L50,46.84,86.56,30.22A3.73,3.73,0,0,1,89.65,37L51.54,54.32A3.63,3.63,0,0,1,50,54.66Z"/>
    <path class="cls-1" d="M70.53,44.37a1.79,1.79,0,0,1-.77-.17L31.66,26.89a1.86,1.86,0,0,1,1.55-3.39l38.1,17.31a1.86,1.86,0,0,1-.78,3.56Z"/>
    <path class="cls-1" d="M50,87a3.73,3.73,0,0,1-3.73-3.73V54.57a3.73,3.73,0,1,1,7.45,0V83.29A3.72,3.72,0,0,1,50,87Z"/>
  </g>
</svg>
