<svg id="圖層_1" data-name="圖層 1" xmlns="http://www.w3.org/2000/svg" width="100" height="100" viewBox="0 0 100 100">
  <defs>
    <style>
      .cls-1 {
        fill: #fff;
        fill-rule: evenodd;
      }
    </style>
  </defs>
  <title>02</title>
  <path class="cls-1" d="M19,93.29H38.11V59.39H61.84v33.9H81A3.06,3.06,0,0,0,84,90.24V52.47c0-.12,0-.25,0-.37h7.22a3.9,3.9,0,0,0,3.34-1.76A4,4,0,0,0,95,46.6a10.83,10.83,0,0,0-2.77-4.06L54.5,8.6a6.3,6.3,0,0,0-9,0L7.77,42.54A10.69,10.69,0,0,0,5,46.6a4,4,0,0,0,.41,3.74A3.9,3.9,0,0,0,8.75,52.1H16c0,.12,0,.25,0,.37V90.24A3.06,3.06,0,0,0,19,93.29Z"/>
</svg>
