<svg id="圖層_1" data-name="圖層 1" xmlns="http://www.w3.org/2000/svg" width="100" height="100" viewBox="0 0 100 100">
  <defs>
    <style>
      .cls-1 {
        fill: #fff;
        fill-rule: evenodd;
      }
    </style>
  </defs>
  <title>03</title>
  <path class="cls-1" d="M22.08,66a4.59,4.59,0,1,0,4.59,4.59A4.6,4.6,0,0,0,22.08,66ZM66.26,23.66c9.13,4.88,14.8,11.49,22.35,21.19,5.45,7,10.66,8.11,10.71,13.36l.08,6.53c.12,4.51-3.67,4.3-4.16,4.3H92.8a10.64,10.64,0,0,0-21,0H32.85a10.89,10.89,0,0,0-17.36-7.12l-.08.07a10.76,10.76,0,0,0-4.1,7.05H11.2l-5.27-.14A5.78,5.78,0,0,1,.6,63.16c0-.06,0-2.83,0-3a3.19,3.19,0,0,1,2.78-2.9V25.81A5.8,5.8,0,0,1,9.18,20H50a35,35,0,0,1,16.29,3.63ZM82.26,66a4.59,4.59,0,1,0,4.59,4.59A4.59,4.59,0,0,0,82.26,66Zm0-4.79a9.38,9.38,0,1,0,9.38,9.38,9.37,9.37,0,0,0-9.38-9.38Zm-.16-14.14c1.8,0,1.4-1.9,1-2.39C72.7,30.33,70.91,31.74,64,31.78a.9.9,0,0,0-.89.9V46.2a.89.89,0,0,0,.89.9l18.16,0Zm-60,14.14a9.38,9.38,0,1,1-9.37,9.38A9.38,9.38,0,0,1,22.08,61.22Z"/>
</svg>
