<svg id="圖層_1" data-name="圖層 1" xmlns="http://www.w3.org/2000/svg" width="100" height="100" viewBox="0 0 100 100">
  <defs>
    <style>
      .cls-1 {
        fill: #fff;
      }
    </style>
  </defs>
  <title>04</title>
  <g>
    <path class="cls-1" d="M59.09,45.53a1.93,1.93,0,0,0,.21-.87,1.81,1.81,0,0,0-1.8-1.8H24.26a1.8,1.8,0,1,0,0,3.6h30A29.19,29.19,0,0,1,59.09,45.53Z"/>
    <path class="cls-1" d="M57.5,32.57H24.26a1.81,1.81,0,0,0,0,3.61H57.5a1.81,1.81,0,0,0,0-3.61Z"/>
    <path class="cls-1" d="M66.07,18.34v27.2a29.92,29.92,0,0,1,8.18,2.17V8.36A4.39,4.39,0,0,0,69.87,4h-15v7.88H66.07Z"/>
    <path class="cls-1" d="M42.25,53.15H23.77l-.05,0h-.16l0,0,0,0,0,0,0,0-.05,0,0,0,0,0h0l0,0,0,0,0,0h0l0,0,0,0,0,0,0,0h0l0,0-.05,0v0l0,0,0,0h0l0,0,0,0,0,0,0,0h0l0,0h0l0,0,0,0,0,0,0,0,0,0,0,0h0l0,0v0l0,0v0l0,0,0,0,0,.05v.17h0v0h0v.17h0v.08h0v.18h0v.13h0v.05h0v.13l0,0h0l0,.05,0,0v0h0l0,0v0l0,0,0,0,0,0,0,0,0,0,0,0,0,0,0,0,0,0,0,0,0,0,0,0,0,0,0,0h0v0l.05,0,0,0,0,0h0l0,0,0,0,0,0,0,0h0l0,0,0,0,0,0,0,0,.05,0,0,0,0,0h0l0,0h.05l0,0H38.88A31.07,31.07,0,0,1,42.25,53.15Z"/>
    <path class="cls-1" d="M22.46,65.23a1.81,1.81,0,0,0,1.8,1.8h9.3a27.17,27.17,0,0,1,1.31-3.6H24.26A1.81,1.81,0,0,0,22.46,65.23Z"/>
    <path class="cls-1" d="M57.5,22.89H24.26a1.8,1.8,0,0,0,0,3.6H57.5a1.8,1.8,0,0,0,0-3.6Z"/>
    <path class="cls-1" d="M15.7,81.89v-70H26.87V4h-15A4.4,4.4,0,0,0,7.51,8.36v77a4.39,4.39,0,0,0,4.38,4.37H36A30,30,0,0,1,33,81.89Z"/>
    <path class="cls-1" d="M49.12,6.78a1.14,1.14,0,0,0-.44-.85h0a2,2,0,0,0-1.24-.41H34.33a1.93,1.93,0,0,0-1.23.41h0a1.14,1.14,0,0,0-.44.85v5.07H49.12Z"/>
    <path class="cls-1" d="M31.92,17.19H49.85a4.13,4.13,0,0,0,2.59-.88,2.59,2.59,0,0,0,1-2V3.26a2.59,2.59,0,0,0-1-2A4.13,4.13,0,0,0,49.85.42H31.92a4.11,4.11,0,0,0-2.59.88,2.59,2.59,0,0,0-1,2V14.35a2.59,2.59,0,0,0,1,2A4.11,4.11,0,0,0,31.92,17.19ZM31.19,6.78a2.57,2.57,0,0,1,1-2,3.45,3.45,0,0,1,2.17-.75h13.1a3.43,3.43,0,0,1,2.17.75,2.57,2.57,0,0,1,1,2v3.53a2.57,2.57,0,0,1-1,2,3.43,3.43,0,0,1-2.17.75H34.33a3.45,3.45,0,0,1-2.17-.75,2.57,2.57,0,0,1-1-2Z"/>
    <path class="cls-1" d="M91.53,55.21A3.64,3.64,0,0,0,86.37,55L81,60c-.45-.53-.92-1.05-1.41-1.54a24.13,24.13,0,1,0,5.26,7.91l6.5-6A3.64,3.64,0,0,0,91.53,55.21ZM80.89,75.47a18.37,18.37,0,0,1-18.4,18.4,18.4,18.4,0,1,1,7-35.41,18.17,18.17,0,0,1,6,4c.43.43.85.89,1.24,1.36L63.45,76,55.72,65.55a3.65,3.65,0,0,0-5.87,4.34L60,83.61a3.64,3.64,0,0,0,2.58,1.46l.35,0a3.66,3.66,0,0,0,2.47-1L80.21,70.54A18.23,18.23,0,0,1,80.89,75.47Z"/>
  </g>
</svg>
