<svg id="圖層_1" data-name="圖層 1" xmlns="http://www.w3.org/2000/svg" width="100" height="100" viewBox="0 0 100 100">
  <defs>
    <style>
      .cls-1 {
        fill: #fff;
        fill-rule: evenodd;
      }
    </style>
  </defs>
  <title>05</title>
  <path class="cls-1" d="M95,46.6a10.83,10.83,0,0,0-2.77-4.06L54.5,8.6a6.3,6.3,0,0,0-9,0L7.77,42.54A10.69,10.69,0,0,0,5,46.6a4,4,0,0,0,.41,3.74A3.9,3.9,0,0,0,8.75,52.1H16c0,.12,0,.25,0,.37V90.24A3.06,3.06,0,0,0,19,93.29H81A3.06,3.06,0,0,0,84,90.24V52.47c0-.12,0-.25,0-.37h7.22a3.9,3.9,0,0,0,3.34-1.76A4,4,0,0,0,95,46.6ZM69.68,69.93a19.75,19.75,0,0,1-27.1,6.8,2.76,2.76,0,0,1,.75-5,2.71,2.71,0,0,1,2.08.31,14.22,14.22,0,1,0-4-20.78l3.53-.68a2.62,2.62,0,0,1,2,.41,2.66,2.66,0,0,1,.79,3.57,2.66,2.66,0,0,1-1.77,1.25l-9.67,1.87a2.21,2.21,0,0,1-.51,0,2.65,2.65,0,0,1-2.54-1.88l-2.91-9.4A2.67,2.67,0,0,1,32,43.07a2.66,2.66,0,0,1,3.33,1.76l1.14,3.7a19.75,19.75,0,0,1,33.17,21.4Z"/>
</svg>
