<svg id="圖層_1" data-name="圖層 1" xmlns="http://www.w3.org/2000/svg" width="100" height="100" viewBox="0 0 100 100">
  <defs>
    <style>
      .cls-1 {
        fill: #fff;
        fill-rule: evenodd;
      }
    </style>
  </defs>
  <title>06</title>
  <path class="cls-1" d="M50,26.05,66,53.77,82,81.49H18L34,53.77,50,26.05Zm2.42-14.42a2.71,2.71,0,0,0-4.77-.15L26.21,48.64h0L4.89,85.58A2.71,2.71,0,0,0,7.1,89.87H92.91a2.66,2.66,0,0,0,1.35-.36,2.7,2.7,0,0,0,1-3.69L73.8,48.65l-21.37-37Zm.74,58.68h-6.3v6.85h6.3V70.31Zm.31-30.48H46.53l.39,24.94H53Z"/>
</svg>
