<svg id="圖層_1" data-name="圖層 1" xmlns="http://www.w3.org/2000/svg" width="100" height="100" viewBox="0 0 100 100">
  <defs>
    <style>
      .cls-1 {
        fill: #fff;
      }
    </style>
  </defs>
  <title>07 </title>
  <path class="cls-1" d="M92.57,89.55h0a2.65,2.65,0,0,0,1.34-.36,2.68,2.68,0,0,0,1-3.66L73.61,48.66,52.41,11.94a2.69,2.69,0,0,0-4.73-.15L26.4,48.65h0L5.25,85.3a2.64,2.64,0,0,0-.5,1.56,2.68,2.68,0,0,0,2.69,2.69m10.81-8.32L34.13,53.74,50,26.24,64.29,51,49.88,64.18l-7.25-9.8a4,4,0,1,0-6.44,4.77l9.9,13.38a4,4,0,0,0,2.84,1.6l.38,0A4,4,0,0,0,52,73.1l16.37-15L81.76,81.23"/>
</svg>
