<svg id="圖層_1" data-name="圖層 1" xmlns="http://www.w3.org/2000/svg" width="100" height="100" viewBox="0 0 100 100">
  <defs>
    <style>
      .cls-1, .cls-2 {
        fill: #fff;
      }

      .cls-2 {
        fill-rule: evenodd;
      }
    </style>
  </defs>
  <title>08</title>
  <g>
    <g>
      <path class="cls-1" d="M35.55,98.35a2.67,2.67,0,0,1-1.07-.23L8,86.1a2.58,2.58,0,0,1-1.51-2.35v-24A2.59,2.59,0,0,1,8,57.35l26.44-12a2.6,2.6,0,0,1,2.15,0l26.44,12a2.6,2.6,0,0,1,1.52,2.36v24a2.59,2.59,0,0,1-1.52,2.35l-26.44,12A2.72,2.72,0,0,1,35.55,98.35ZM11.7,82.08,35.55,92.92,59.41,82.08V61.37L35.55,50.53,11.7,61.37Z"/>
      <path class="cls-1" d="M35.55,75a2.67,2.67,0,0,1-1.07-.23L8,62.71A2.59,2.59,0,0,1,10.18,58L35.55,69.53,60.93,58a2.59,2.59,0,1,1,2.14,4.71l-26.44,12A2.72,2.72,0,0,1,35.55,75Z"/>
      <path class="cls-1" d="M49.81,67.82a1.32,1.32,0,0,1-.54-.12l-26.44-12a1.3,1.3,0,0,1,1.07-2.36l26.44,12a1.29,1.29,0,0,1-.53,2.47Z"/>
      <path class="cls-1" d="M35.55,97.42A2.58,2.58,0,0,1,33,94.83V74.9a2.59,2.59,0,1,1,5.17,0V94.83A2.59,2.59,0,0,1,35.55,97.42Z"/>
    </g>
    <g>
      <path class="cls-2" d="M61,61.37v-1.1l-.31.09C60.8,60.69,60.89,61,61,61.37Z"/>
      <path class="cls-2" d="M86.76,22.92a36.79,36.79,0,0,0-50.33-9.49.94.94,0,0,1-.49,0,1.08,1.08,0,0,1-.7-.65L30.84,2.35a1.11,1.11,0,0,0-1.05-.7,1.09,1.09,0,0,0-1,.73L15.4,39.8a1.11,1.11,0,0,0,.14,1,1.06,1.06,0,0,0,.91.46H56.16a1.09,1.09,0,0,0,1-.71,1.14,1.14,0,0,0-.31-1.23L48.37,31.4a1.12,1.12,0,0,1-.38-.88c0-.73.76-1.08,1.31-1.41A16.72,16.72,0,0,1,68.5,56v23a36.78,36.78,0,0,0,18.26-56Z"/>
      <path class="cls-2" d="M61,80.62V77.94a27,27,0,0,1-1,2.81C60.31,80.72,60.65,80.66,61,80.62Z"/>
    </g>
  </g>
</svg>
