<svg id="圖層_1" data-name="圖層 1" xmlns="http://www.w3.org/2000/svg" width="100" height="100" viewBox="0 0 100 100">
  <defs>
    <style>
      .cls-1 {
        fill: #fff;
        fill-rule: evenodd;
      }
    </style>
  </defs>
  <title>09 </title>
  <path class="cls-1" d="M57.54,32.58a.8.8,0,0,1,.31-.62.77.77,0,0,1,.67-.13l7.58,1.69a.8.8,0,0,0,.84-.32.78.78,0,0,0,0-.89C61.49,24.61,56.05,16.93,50.64,9.2A.76.76,0,0,0,50,8.86a.8.8,0,0,0-.65.34L33.07,32.32a.77.77,0,0,0,0,.9.78.78,0,0,0,.84.31l7.58-1.7a.78.78,0,0,1,.66.14.76.76,0,0,1,.32.61c0,2.88.09,8.81.11,15.53-6.7,0-12.62,0-15.51-.14a.75.75,0,0,1-.61-.32.78.78,0,0,1-.14-.66L28,39.42a.82.82,0,0,0-.31-.85.8.8,0,0,0-.91,0Q15.25,46.74,3.69,54.87a.78.78,0,0,0,0,1.29L26.8,72.44a.8.8,0,0,0,.9,0,.81.81,0,0,0,.32-.84L26.32,64a.8.8,0,0,1,.75-1C30,63,35.88,63,42.6,62.93h.1V87.86A3.28,3.28,0,0,0,46,91.14h8.66a3.28,3.28,0,0,0,3.29-3.28v-25c6.49,0,12.18.05,15,.14a.8.8,0,0,1,.62.32.79.79,0,0,1,.13.67L72,71.62a.78.78,0,0,0,1.22.82q11.55-8.16,23.1-16.28a.79.79,0,0,0,.34-.65.76.76,0,0,0-.34-.64L73.2,38.58a.8.8,0,0,0-.91,0,.82.82,0,0,0-.31.85L73.68,47a.8.8,0,0,1-.14.67.74.74,0,0,1-.61.31c-2.88,0-8.82.09-15.53.12C57.41,41.38,57.45,35.46,57.54,32.58Z"/>
</svg>
