<svg id="圖層_1" data-name="圖層 1" xmlns="http://www.w3.org/2000/svg" width="100" height="100" viewBox="0 0 100 100">
  <defs>
    <style>
      .cls-1 {
        fill: #fff;
        fill-rule: evenodd;
      }
    </style>
  </defs>
  <title>10</title>
  <path class="cls-1" d="M20.12,30.61,31.8,10.7a3.85,3.85,0,0,1,3.39-2l30.3.25a3.65,3.65,0,0,1,3.16,1.83l3.87,6.79,2.15-1.22a1.37,1.37,0,0,1,2,1.63l-5.44,16a1.34,1.34,0,0,1-1.57.89L53.12,31.31a1.35,1.35,0,0,1-1.06-1.13,1.37,1.37,0,0,1,.68-1.4l1.66-.94L52,23.61c-.46-.82-1.62-2.69-2.14-1.81L38.14,41.21a2.06,2.06,0,0,1-2.79.72l-14.5-8.52a2,2,0,0,1-.73-2.8Zm27,56.74a2,2,0,0,0,2.06-2l.13-16.82a2.05,2.05,0,0,0-2-2L24.63,66c-1,0,0-2,.49-2.76L27.58,59l1.64,1a1.37,1.37,0,0,0,2-1.61l-5.2-16a1.37,1.37,0,0,0-1.57-.93L7.91,44.71a1.38,1.38,0,0,0-.44,2.53L9.6,48.49,5.67,55.24a3.57,3.57,0,0,0,0,3.64L20.59,85.27A3.83,3.83,0,0,0,24,87.18l23.09.17ZM82.75,35.59A2,2,0,0,0,80,34.83L65.34,43.12a2.06,2.06,0,0,0-.78,2.78l11,19.83c.49.88-1.72.93-2.64.94H68v-1.9a1.37,1.37,0,0,0-2.38-.94L54.34,76.35a1.36,1.36,0,0,0,0,1.82l11.11,12.7a1.37,1.37,0,0,0,2.4-.9l0-2.47,7.8,0a3.61,3.61,0,0,0,3.16-1.82L94.21,59.6a3.85,3.85,0,0,0,0-3.93Z"/>
</svg>
