<svg id="圖層_1" data-name="圖層 1" xmlns="http://www.w3.org/2000/svg" width="100" height="100" viewBox="0 0 100 100">
  <defs>
    <style>
      .cls-1 {
        fill: #fff;
        fill-rule: evenodd;
      }
    </style>
  </defs>
  <title>11</title>
  <path class="cls-1" d="M71.61,50H28.39A5.44,5.44,0,0,0,23,55.41V80.35a5.44,5.44,0,0,0,5.43,5.44H71.61A5.44,5.44,0,0,0,77,80.35V55.41A5.44,5.44,0,0,0,71.61,50Zm-4.25-4.65V38.65a17.36,17.36,0,0,0-34.72,0v6.68a.85.85,0,0,1-.84.84H26.4a.84.84,0,0,1-.83-.84V38.65a24.43,24.43,0,0,1,48.86,0v6.68a.84.84,0,0,1-.83.84H68.2a.85.85,0,0,1-.84-.84ZM50,58.05a5.52,5.52,0,0,1,3.2,10v8.64a2.66,2.66,0,0,1-2.65,2.66h-1.1a2.67,2.67,0,0,1-2.65-2.66V68.08a5.52,5.52,0,0,1,3.2-10Z"/>
</svg>
