<svg id="圖層_1" data-name="圖層 1" xmlns="http://www.w3.org/2000/svg" width="100" height="100" viewBox="0 0 100 100">
  <defs>
    <style>
      .cls-1 {
        fill: #fff;
        fill-rule: evenodd;
      }
    </style>
  </defs>
  <title>12</title>
  <path class="cls-1" d="M71.61,50H28.39A5.44,5.44,0,0,0,23,55.41V80.35a5.44,5.44,0,0,0,5.43,5.44H71.61A5.44,5.44,0,0,0,77,80.35V55.41A5.44,5.44,0,0,0,71.61,50Zm-10-24.25a17.6,17.6,0,0,0-5-3.17A17.39,17.39,0,0,0,32.64,38.65v6.68a.85.85,0,0,1-.84.84H26.41a.84.84,0,0,1-.84-.84V38.65a24.4,24.4,0,0,1,40.92-18,.8.8,0,0,1,.27.6.84.84,0,0,1-.24.61l-3.77,3.83a.82.82,0,0,1-1.15,0ZM50,58.05a5.52,5.52,0,0,1,3.2,10v8.64a2.66,2.66,0,0,1-2.65,2.66h-1.1a2.66,2.66,0,0,1-2.65-2.66V68.08a5.53,5.53,0,0,1,3.2-10Z"/>
</svg>
