<svg id="圖層_1" data-name="圖層 1" xmlns="http://www.w3.org/2000/svg" width="100" height="100" viewBox="0 0 100 100">
  <defs>
    <style>
      .cls-1, .cls-2 {
        fill: #fff;
      }

      .cls-2 {
        fill-rule: evenodd;
      }
    </style>
  </defs>
  <title>14</title>
  <g>
    <path class="cls-1" d="M91.62,47.07l-9.29-8a3.14,3.14,0,0,0-.63-.42,1.51,1.51,0,0,0-.51-2.48L65.11,29.94,60.3,34.68,74.6,40.4,52.8,49.12a3,3,0,0,0-.86,5.13l9.27,8a3.11,3.11,0,0,0,2,.74,3,3,0,0,0,1.13-.22l10.25-4.1V70.4L49,78.5V52.87a2.63,2.63,0,0,0,0-.49.34.34,0,0,0,0-.1v0a2.93,2.93,0,0,0-.22-.65,1.4,1.4,0,0,0-.09-.17,3,3,0,0,0-.27-.42,2.68,2.68,0,0,0-.52-.52l-.12-.11a3.65,3.65,0,0,0-.61-.34h0L23.76,40.73l12.86-5.14-4.38-4.32L17.46,37.65A1.64,1.64,0,0,0,17,40.39L8.25,48.93a3,3,0,0,0,1,5L18,57.43a3.29,3.29,0,0,0,0,.54V72.63a3,3,0,0,0,1.89,2.82l24.46,10a3,3,0,0,0,1.15.23l.27,0,.25,0a3.21,3.21,0,0,0,.92-.14l31.68-10a3,3,0,0,0,2.13-2.9V56.79a2.33,2.33,0,0,0-.06-.53l10-4a3.15,3.15,0,0,0,1.52-1.19A3,3,0,0,0,91.62,47.07ZM15.85,50l4.31-4.19L40.46,54l-4.32,4.2ZM42.9,78.33,24,70.59V59.84l11.72,4.69a3,3,0,0,0,1.13.22A3.07,3.07,0,0,0,39,63.89l3.93-3.82Zm20.89-21.9-4.08-3.52,20.05-8,4.09,3.52Z"/>
    <path class="cls-2" d="M54.31,27.42l.24.24.52.05,6.08-.27c.14,0,.17.2.18.34a.46.46,0,0,1-.15.36L49,40.17a.92.92,0,0,1-.5.13.9.9,0,0,1-.5-.13l-12.22-12a.46.46,0,0,1-.15-.36c0-.14,0-.34.19-.34l6.07.28.52-.06.24-.23.21-11.9c0-.67,1.09-1.22,2.43-1.22h6.43c1.35,0,2.44.55,2.44,1.22Z"/>
  </g>
</svg>
