<svg id="圖層_1" data-name="圖層 1" xmlns="http://www.w3.org/2000/svg" width="100" height="100" viewBox="0 0 100 100">
  <defs>
    <style>
      .cls-1, .cls-2 {
        fill: #fff;
      }

      .cls-2 {
        fill-rule: evenodd;
      }
    </style>
  </defs>
  <title>15</title>
  <g>
    <path class="cls-1" d="M91.62,48.57l-9.29-8a3.14,3.14,0,0,0-.63-.42,1.51,1.51,0,0,0-.51-2.48L59.72,29.25l-.13,6.64,15,6L52.8,50.62a3,3,0,0,0-.86,5.13l9.27,8a3.11,3.11,0,0,0,2,.74,3,3,0,0,0,1.13-.22l10.25-4.1V71.9L49,80V54.37a2.63,2.63,0,0,0,0-.49.34.34,0,0,0,0-.1v0a2.93,2.93,0,0,0-.22-.65,1.4,1.4,0,0,0-.09-.17,3,3,0,0,0-.27-.42,2.68,2.68,0,0,0-.52-.52l-.12-.11a3.65,3.65,0,0,0-.61-.34h0L23.76,42.23l16.63-6.65-.11-5.92L17.46,39.15A1.64,1.64,0,0,0,17,41.89L8.25,50.43a3,3,0,0,0,1,5L18,58.93a3.29,3.29,0,0,0,0,.54V74.13A3,3,0,0,0,19.81,77L44.27,87a3,3,0,0,0,1.15.23l.27,0,.25,0a3.21,3.21,0,0,0,.92-.14L78.54,77a3,3,0,0,0,2.13-2.9V58.29a2.33,2.33,0,0,0-.06-.53l10-4a3.15,3.15,0,0,0,1.52-1.19A3,3,0,0,0,91.62,48.57Zm-75.77,3,4.31-4.19,20.3,8.11-4.32,4.2ZM42.9,79.83,24,72.09V61.34L35.72,66a3,3,0,0,0,1.13.22A3.07,3.07,0,0,0,39,65.39l3.93-3.82Zm20.89-21.9-4.08-3.52,20.05-8,4.09,3.52Z"/>
    <path class="cls-2" d="M44.15,25.68l-.24-.24-.52-.05-6.08.27c-.14,0-.17-.2-.18-.34a.46.46,0,0,1,.15-.36l12.22-12a1,1,0,0,1,1,0L62.72,25a.49.49,0,0,1,.15.36c0,.14,0,.35-.19.35l-6.08-.28-.51.05-.24.24-.21,11.89c0,.68-1.09,1.23-2.43,1.23H46.77c-1.34,0-2.43-.55-2.43-1.23Z"/>
  </g>
</svg>
