<svg version="1" xmlns="http://www.w3.org/2000/svg" width="413.333" height="413.333" viewBox="0 0 310.000000 310.000000"><path d="M113.7 11.2C111.8 13 14.4 171.9 9.2 181.7c-1.7 3.1-1.5 6.8.5 9.2 1.7 1.9 30.5 19.8 100.8 62.3 31.6 19.2 30.4 18.5 29 17-.5-.5-4.7-3.2-9.1-5.9l-8.2-4.8 19.4-32.4c10.7-17.8 19.4-33.3 19.4-34.5 0-3.6-2.6-6.3-10-10.2-3.8-2.1-6.7-4.1-6.2-4.5 1.3-1.3 60.3-32.2 60.6-31.8.9 1-.8 66.9-1.7 66.9-.6 0-3.9-1.6-7.4-3.6-5.9-3.3-6.8-3.5-11.1-2.7l-4.7.8-14.2 23.5c-7.9 12.9-16.7 27.4-19.7 32.2l-5.4 8.8 8.6 5.3c30.9 19 39.1 23.7 41.5 23.7 1.4 0 3.7-1 5.1-2.3 1.3-1.2 25.7-40.3 54-87 55-90.4 54.3-88.9 49.4-93.4-1.3-1.1-15.1-9.8-30.8-19.3-15.7-9.5-55.4-33.6-88.2-53.6C144.4 23.2 120.1 9 118.6 9c-1.4 0-3.6 1-4.9 2.2z"/></svg>