<?xml version="1.0" encoding="utf-8"?>
<!-- Generator: Adobe Illustrator 22.0.1, SVG Export Plug-In . SVG Version: 6.00 Build 0)  -->
<svg version="1.1" id="圖層_1" xmlns="http://www.w3.org/2000/svg" xmlns:xlink="http://www.w3.org/1999/xlink" x="0px" y="0px"
	 viewBox="0 0 543 136" style="enable-background:new 0 0 543 136;" xml:space="preserve">
<style type="text/css">
	.st0{fill:#DD642E;}
	.st1{fill:#E18430;}
	.st2{fill:#217CBF;}
	.st3{fill:#327CB2;}
</style>
<g>
	<path class="st0" d="M397.7,13.9c-7.7,0-31.8,11.2-31.8,11.2l2.8,5.6c0,0,19.7-10,26.2-12.2c2.8-0.9,11.3,1.5,9.4,3.7
		c-11.2,13.1-16.8,29-20.6,33.7c-2.6,3.3-19.6-34.6-31.8-38.4c-7.5-4.7-36.2-6.1-37.4-5.6l-3.7,10.3c0,0,28.1-0.9,40.2,4.7
		c12.6,5.8,26.1,36.5,31.8,36.5c4.7,0,7.1-5.9,8.4-8.4c5.6-10.3,12.1-24.3,15-28.1c2.8-3.7,7.5-1.9,9.4-2.8
		C416.4,21.4,407,13.9,397.7,13.9z"/>
	<path class="st1" d="M349.5,31.3c-6.5-2.8-41.6-2.3-41.6-2.3L305,39.2c0,0,38.1-3.1,44,0c11.7,6.1,21,24.8,21,24.8h6.5
		C376.6,64,360.3,35.9,349.5,31.3z"/>
	<path class="st1" d="M350,46.7c-8.6-2.2-48.6-0.9-48.6-0.9l-2.8,9.4c0,0,46.2-1.5,51.5,0c6.5,1.9,8.9,8.9,8.9,8.9h6.5
		C365.4,64,357.4,48.6,350,46.7z"/>
</g>
<g>
	<path class="st2" d="M63.1,23.9c1.2-1.6,2.8-3,4.8-4c2-1.1,4.2-1.9,6.7-2.4c2.5-0.5,5.1-0.8,7.8-0.8c2.6,0,5.1,0.3,7.7,0.8
		c2.5,0.5,4.8,1.4,6.7,2.4c2,1.1,3.5,2.4,4.7,4c1.2,1.6,3.4,6.6,3.4,12.6s-2.2,11.8-3.4,13.3c-1.2,1.6-2.8,2.9-4.7,4
		c-2,1.1-4.2,1.9-6.7,2.4c-2.5,0.5-5.1,0.8-7.7,0.8c-2.7,0-5.2-0.3-7.8-0.8c-2.5-0.5-4.8-1.4-6.7-2.4c-2-1.1-3.6-2.4-4.8-4
		c-1.2-1.6-3.3-7.3-3.3-13.3S61.9,25.5,63.1,23.9z M82.3,22.6c-8.5-0.1-13.5,2.9-13.5,13.9s4.1,14.7,13.5,14.7s13.5-5.7,13.5-14.7
		S90.9,22.7,82.3,22.6z"/>
	<path class="st2" d="M215.6,23.9C219,18,226,16,235,16s17,4,19,7.9c0.9,1.8,3.4,6.6,3.4,12.6s-2.2,11.7-3.4,13.3
		c-3,4.2-11.1,8.3-19,8.2s-16-3-19.4-8.2c-1.1-1.7-3.3-7.3-3.3-13.3S214.6,25.7,215.6,23.9z M234.9,22.6
		c-8.5-0.1-13.5,2.9-13.5,13.9s4.1,14.7,13.5,14.7s13.5-5.7,13.5-14.7S243.4,22.7,234.9,22.6z"/>
	<path class="st2" d="M205.2,56.8c-3.7,0-18.1-0.1-21.6,0c-7.6,0.2-12.3-0.2-14.3-1.3c-2-1.1-3.5-2.4-4.7-4
		c-1.2-1.6-1.8-5.5-1.8-7.6V29.5c0-2.1,0.6-5.9,1.8-7.6c1.2-1.6,2.8-3,4.8-4c2-1.1,6.7-0.8,6.7-0.8s18.1,0,20.1,0l0.3-13.5h8.4
		L205.2,56.8z M186.2,50.1c0,0,6.7,0,10,0V24.3c-2,0-6,0-6,0s-13.2-0.3-15,0c-1.3,0.2-2.1,1.3-2.8,2.2c-0.7,0.9-1,1.9-1,3v14.7
		c0,1.1,0.3,2.2,1,3.1c0.7,0.9,1.6,1.7,2.7,2.3C176.2,50.2,186.2,50.1,186.2,50.1z"/>
	<path class="st2" d="M292,12.1c1.2-0.1,7-0.3,11,0l-3,9c-2.2-0.1-10.1-0.3-14,1c-3,1-7,4-7,9v26l-10.6-0.2V30.8
		c0-4.7,1.7-7.3,2.6-8.7C273,19.1,279,13.1,292,12.1z M303,12.1l-3,9"/>
	<path class="st2" d="M53.2,57.1H25.7c-2.9,0-5.6-0.9-8-2.8c-2.4-1.9-4.4-4.4-5.8-7.7c-1.4-3.2-2.2-6.8-2.3-10.6
		c0-3,0.4-5.8,1.3-8.5c0.8-2.7,2-5,3.5-7.1c1.5-2,3.3-3.6,5.3-4.7c2-1.1,4.1-1.7,6.3-1.7h27.1l-0.1,9.3H26c-3-0.3-7,5.7-7,12.7
		c0,6,4,12,6.8,12.1h27.2L53.2,57.1z"/>
	<path class="st2" d="M110.1,32.2c0-2.7,0.6-5.2,1.7-7.4c1.2-2.2,2.8-4,4.8-5.5c2-1.5,4.5-2.7,7.3-3.4c2.8-0.8,5.9-1.2,9.2-1.2
		c3.3,0,6.4,0.4,9.2,1.2s5.3,1.9,7.3,3.4c2,1.5,3.6,3.3,4.8,5.5c1.1,2.2,1.7,4.6,1.7,7.4v24.9h-10.7V34.6c0-3.7-1-6.6-3.1-8.5
		c-2.1-1.9-5.1-2.9-9.1-2.9c-4.1,0-7.1,1-9.2,2.9c-2,1.9-3.1,4.8-3.1,8.5v22.5h-10.7V32.2z"/>
</g>
<g>
	<path class="st3" d="M62.8,105.5c0,0-0.1,1.6-0.1,2.3c-0.3,13.3-0.7,18.4-2,20.1c-1,1.3-2.1,1.8-3.6,2c-1.1,0.2-3,0.2-5,0.2
		c-0.1-1.7-0.7-4-1.6-5.5c1.6,0.2,2.8,0.2,3.5,0.2c0.7,0.1,1.1-0.1,1.5-0.7c0.6-0.9,0.9-4.3,1.1-13.3H54c-1,8.4-3.3,14.7-8.7,19.6
		c-0.7-1.4-2.4-3.5-3.8-4.5c-0.2,1-0.5,1.6-0.8,2c-1,1.3-1.9,1.8-3.3,2c-1.2,0.2-3,0.2-4.8,0.2c-0.1-1.6-0.7-3.9-1.4-5.3
		c1.4,0.2,2.5,0.2,3.2,0.2c0.7,0,1-0.1,1.4-0.7c0.6-1,0.9-4.4,1.1-13.5h-2.6c-1,8.5-3.2,15-8.3,19.9c-0.8-1.4-2.5-3.4-3.9-4.4
		c4-3.7,5.7-8.8,6.3-15.4H24v-5.4h5c0.1-1.7,0.1-3.6,0.1-5.5h1.6c-0.7-1.4-2.1-3.3-3.3-4.5V96h-6.1v34.2h-6.7V96H8v-6.4h6.5V74.6
		h6.7v14.9h6.1v5.6c6.1-2.1,9.4-5.1,11.2-8.9h-8.9v-5.7h10.6c0.3-1.8,0.5-3.8,0.6-5.9h6.6c-0.1,2.1-0.4,4.1-0.7,5.9H61
		c0,0-0.1,1.6-0.2,2.4c-0.7,8.5-1.5,12.3-3,14c-1.3,1.3-2.5,1.7-4.4,1.8c-1.5,0.2-4,0.2-6.7,0.1c-0.1-1.7-0.8-4.1-1.8-5.7
		c2.4,0.2,4.7,0.3,5.7,0.3c0.8,0,1.4-0.1,1.9-0.6c0.7-0.6,1.2-2.5,1.6-6.6h-8.8c-2.1,6.1-6.3,10.6-14.3,13.8h4
		c-0.1,1.9-0.1,3.8-0.2,5.5h7.8c0,0,0,1.6-0.1,2.3c-0.2,9.8-0.5,15.1-1.1,18c4.1-3.6,5.8-8.5,6.5-14.9h-4.2v-5.4h4.6
		c0.1-1.8,0.1-3.7,0.2-5.7h6.1c-0.1,2-0.1,3.9-0.2,5.7H62.8z"/>
	<path class="st3" d="M119.3,108.5c-0.8-1.5-2.3-3.6-3.7-5.5c-0.9,1.8-1.9,3.4-3,4.7c-0.7-0.7-1.8-1.7-2.9-2.5
		c3.3,6.4,8.9,12.9,14.4,16.4c-1.5,1.3-3.6,3.6-4.5,5.4c-3.8-2.9-7.5-7.2-10.5-12.2v15.5h-6.2v-15c-3.2,5.1-7,9.5-11.3,12.3
		c-0.6-1-1.7-2.3-2.7-3.5c-6.9,1.6-14,3.1-19.4,4.4l-1.3-6.4c2.3-0.4,5.2-0.9,8.4-1.4v-14.9h-7.6v-6h7.6v-4.4h-4.4v-2.6
		c-0.9,0.9-1.8,1.7-2.7,2.5c-0.4-1.6-1.7-5.5-2.4-7.3c4.2-3.2,8.8-8.5,11.4-13.9l5,2.4c-0.4,0.7-0.7,1.4-1.1,2.2
		c3.1,1.8,6.1,4,8.2,5.8v-2.6h12.2v-7.6h6.2v7.6h13.5v6.1h-13.5v14.9c2.4-3.3,3.8-7.8,4.5-12.7l5.4,0.9c-0.3,2-0.7,4.1-1.3,6
		c2.1,2.4,4.4,5.4,5.6,7.2L119.3,108.5z M73.6,107.9c1,3.2,1.8,7.5,2.1,10.2l-4.4,1.4c-0.2-2.9-1.1-7.1-1.9-10.4L73.6,107.9z
		 M86.8,89.5c-2.1-1.9-4.7-3.9-7.4-5.7c-1.3,2-2.7,3.9-4.2,5.7H86.8z M82.2,99.8h6.9v5.8c3.2-3.6,5-9.1,5.8-15.1l5.5,0.8
		c-0.3,2-0.7,3.9-1.2,5.7c1.3,1.6,2.7,3.5,3.6,5V88.2H90.7v-1.1l-2,4.2c-0.4-0.4-0.9-0.9-1.4-1.4v5.5h-5V99.8z M89.3,121.1
		c5.7-3.9,10.7-10.5,13.5-17.2v-0.4l-3.5,3.2c-0.5-1-1.3-2.3-2.3-3.7c-1.1,2.4-2.3,4.6-3.8,6.3c-0.9-0.9-3.2-2.7-4.4-3.5h-6.7v13.9
		l6.9-1.3L89.3,121.1z M82.7,117.4c0.8-2.7,1.7-7,2-10l4.9,1.4c-1.1,3.5-2.1,7.4-3,10L82.7,117.4z"/>
	<path class="st3" d="M143.8,103.3c-0.9,4.9-2.3,10.2-4.2,14.7c0.9,0.6,2,1.4,3.5,2.3c4.1,2.4,9.7,2.8,16.6,2.8
		c6.9,0,17.5-0.6,24.2-1.6c-0.8,1.9-2,5.4-2.1,7.3c-4.9,0.3-15.4,0.7-22.4,0.7c-7.9,0-12.9-0.7-17.2-3.2c-2.5-1.4-4.6-3.3-5.8-3.3
		c-1.4,0-3.5,4.1-4.9,7.5l-4.8-6.7c2.1-2.6,4.4-4.6,6.4-5.8c1.4-3,2.6-6.7,3.3-10.3h-7.6c1.4-3.5,3-8.3,4.4-12.9h-5.5v-6.3h14.1
		c-1.3,4.2-2.8,9-4.2,13.1h1l1-0.2L143.8,103.3z M134.1,86.8c-0.7-2.7-2.3-7.1-3.3-10.3l6.3-1.9c1.1,3.2,2.7,7.2,3.5,9.9L134.1,86.8
		z M148.5,88.3h-5V76.4h38v11.9h-6.2v2.2h-9.2v2.1h12.4v17.5h-12.4v2.1h15.3v5.1h-15.3v3.9h-6.9v-3.9H144v-5.1h15.1v-2.1h-12.3V92.6
		h12.3v-2.1h-10.7V88.3z M150,81.6v3.9h9.2v-2.3h6.9v2.3h8.6v-3.9H150z M152.9,99.4h6.3V97h-6.3V99.4z M159.2,105.8v-2.4h-6.3v2.4
		H159.2z M166.1,97v2.4h6.1V97H166.1z M172.2,103.4h-6.1v2.4h6.1V103.4z"/>
	<path class="st3" d="M239.9,77.2v53.3h-7V128H196v2.5h-6.7V77.2H239.9z M232.9,121.7V83.6H226c1.8,1,3.8,2.3,4.7,3.3l-2.3,2.5h2.7
		v5h-10.7c0.3,3.3,0.7,6.3,1.2,9c1.1-2.3,2-4.7,2.7-7.3l5.5,1.1c-1.4,5.1-3.6,9.7-6.3,13.6c0.8,1.9,1.7,3.1,2.6,3.3
		c0.7,0.2,1.1-2.1,1.4-5.5c1.1,1.1,3.3,2.7,4.5,3.3c-0.9,7.3-3.9,9.5-7.9,7.8c-1.8-0.6-3.3-2-4.5-4.1c-2,2-4.1,3.8-6.4,5.3
		c-0.8-1.1-2.7-3.4-3.9-4.4c0.7-0.4,1.3-0.8,1.9-1.1c-4.7,0.7-9.1,1.3-12.9,1.8l-0.8-5.1c4.4-0.4,10.6-1.2,16.8-2l0.1,2.7
		c1.1-0.9,2-1.8,2.9-2.9c-1.3-4.3-2-9.7-2.6-15.5h-16.6v-5h16.1c-0.1-1.7-0.2-3.3-0.3-5h5.9c0.1,1.7,0.1,3.3,0.2,5h6.3
		c-1.3-1.1-3-2.3-4.5-3.1l2.6-2.7H196v38.1H232.9z M213.1,108.6h-13.4V97.1h13.4V108.6z M208.3,100.8h-4.1v3.9h4.1V100.8z"/>
	<path class="st3" d="M274.4,100.6c-1.8,2-3.9,3.8-6.1,5.2c-0.7-1.2-2.3-3.1-3.3-4.2c0.5,2.1,0.7,4,0.7,5.7c0,3.8-0.7,6.4-2.6,7.8
		c-0.8,0.7-1.9,1.1-3.2,1.4c-1,0.1-2.3,0.1-3.6,0.1c-0.1-1.6-0.6-4.2-1.6-5.8c1,0.1,1.8,0.1,2.4,0.1c0.6,0,1.1-0.1,1.6-0.5
		c0.7-0.5,1-1.9,1-3.6c0-2.9-0.6-6.7-3.8-11c1.1-3.6,2.2-8.5,3.1-12.3h-4.4v46.9h-6.1V76.9h12.5l1-0.2l4.4,2.4
		c-0.7,2.4-1.4,5.2-2.3,7.8c3.3-3.2,5.8-7.6,7.3-12.2l5.2,1.2c-0.4,1-0.7,2-1.2,3h4.5l1-0.2l3.5,1.4l-0.2,1.1l3-0.7l0.1-2.7h9.4
		l1.1-0.3l3.8,2.3c-1.6,4.9-4.4,10.1-7.2,13.7c2.3,3.2,5.1,5.8,8.4,7.5c-1.3,1.1-3.1,3.4-4,5c-2.7-1.7-4.9-3.8-7-6.3v3.6h-17.4
		V100.6z M272.5,94.5c0.7-0.9,1.4-2,2.1-3c-1.2-1.1-2.7-2.4-4.2-3.6c-1.1,1.6-2.3,3-3.6,4.2c-0.7-0.7-2.1-1.9-3.3-2.8
		c-0.5,2-1.2,3.9-1.8,5.7c1.6,2.3,2.6,4.5,3.2,6.6c2.3-1.3,4.4-3.2,6.4-5.5c-2.3,0.4-4.3,0.8-6.6,1.2l-0.7-4.4
		c2.4-0.2,5-0.5,8.3-0.8L272.5,94.5z M277.2,117.1c-2.2,3.7-5.5,8.2-8.1,10.9c-1.4-1.1-4.1-2.8-5.7-3.6c2.6-2.4,5.5-6.1,7.3-9.4
		L277.2,117.1z M286.7,113v17.2H280V113h-11.2v-5.7h28.9v5.7H286.7z M273.3,83.5l-0.4,0.7c1.3,1,2.6,2,3.8,3c0.5-1.1,1-2.4,1.4-3.7
		H273.3z M290.3,97.6c-2.9-4-5.1-8.9-6.7-14.2c-1.6,5.5-3.8,10.3-6.7,14.2H290.3z M289,82.4c0.7,2,1.4,3.9,2.4,5.8
		c1.1-1.7,2.1-3.8,2.9-5.8H289z M294.5,114.4c2.6,2.9,6.3,7.1,8.1,9.7l-5.5,3.5c-1.6-2.6-5.2-7-7.8-10.1L294.5,114.4z"/>
	<path class="st3" d="M328.6,88.4c-0.7,1.6-1.5,3.2-2.4,4.7h27.7v29.5c0,3.5-0.7,5.4-3.1,6.5c-2.3,1.1-5.7,1.2-10.6,1.2
		c-0.3-2-1.3-5-2.1-6.9c3,0.2,6.5,0.2,7.5,0.2c1-0.1,1.4-0.4,1.4-1.2v-3.6h-22.4c-1,4.5-2.9,8.8-6.6,11.9c-1-1.5-3.6-4.5-5.1-5.4
		c5.1-4.5,5.5-10.9,5.5-16.4V104c-2.3,2.4-4.7,4.6-7.4,6.5c-1.1-1.6-3.3-4.2-4.7-5.5c6-4,10.8-10,14.3-16.6h-12.9v-6.7h16
		c1-2.4,1.7-4.8,2.4-7.2l7.3,1.7c-0.6,1.8-1.3,3.7-1.9,5.5h29.1v6.7H328.6z M347,112.9V109h-21.4c0,1.3-0.1,2.5-0.1,3.9H347z
		 M347,99.4h-21.4v3.8H347V99.4z"/>
	<path class="st3" d="M388.4,79.3c-1.6,5-3.5,11-5.1,15.6c3.6,4.7,4.3,8.9,4.3,12.4c0,3.8-0.8,6.4-2.7,7.8c-0.9,0.7-2,1.1-3.3,1.3
		c-1.1,0.2-2.5,0.2-3.9,0.1c0-1.7-0.6-4.4-1.6-6.1c1,0.1,1.9,0.1,2.6,0.1c0.6,0,1.2-0.1,1.6-0.5c0.7-0.5,1.1-1.8,1.1-3.5
		c0-2.9-0.8-6.7-4.2-10.9c1.1-3.6,2.4-8.5,3.4-12.4h-5.8v46.9h-6.2V76.9h14.2l1-0.3L388.4,79.3z M420.6,109.9c-2.6,2-5.7,4.3-8.4,6
		c2.5,3.4,5.7,6.2,9.7,8c-1.6,1.4-3.7,4.2-4.7,6.1c-8.9-4.9-13.7-14.1-16.5-25.8h-3.6v16.8l8.3-1.8c-0.1,2,0.1,4.9,0.3,6.4
		c-11.6,3-13.8,3.9-15.3,4.8c-0.5-1.6-2-4.4-3-5.5c1.3-0.8,2.7-2.4,2.7-5.2V76.9h27v27.4h-10.3c0.7,2.3,1.4,4.5,2.4,6.5
		c2.4-1.8,5.1-4.1,6.8-5.9L420.6,109.9z M397.1,83v4.7h13.1V83H397.1z M397.1,98.2h13.1v-4.8h-13.1V98.2z"/>
	<path class="st3" d="M449.1,78.4c-4.4,9.8-11.3,19.9-17.8,26.1c-1.4-1.6-4.5-4.7-6.3-6.1c6.3-5.3,12.6-14,16.2-22.6L449.1,78.4z
		 M465.8,105.8c4.8,6.6,10.3,15,13.2,20.6l-7.3,3.9c-0.8-1.7-1.8-3.7-3.1-5.8c-28.8,2.3-32.9,2.6-35.8,3.7c-0.5-1.5-1.8-5.5-2.9-7.6
		c2-0.5,3.6-2.1,6-4.8c2.5-2.6,10-12.7,14.7-22.6l8.3,3.5c-4.6,8.1-10.3,16-16.1,22.5l21.9-1.4c-1.9-3-3.9-6.1-5.7-8.7L465.8,105.8z
		 M467,76c2.6,8.4,8,16.8,15.3,21.2c-1.6,1.6-4.2,5-5.4,7.2c-6.8-5.2-12.1-13.2-15.4-21.1h-9.5V76H467z"/>
	<path class="st3" d="M537,121.2c0,4.1-0.7,6.2-3.3,7.5c-2.4,1.3-6.3,1.4-11.6,1.4c-0.2-2.1-1.3-5.6-2.3-7.7
		c3.3,0.2,7.3,0.2,8.4,0.1c1.1,0,1.5-0.3,1.5-1.3V84.9h-41.6v-6.7H537V121.2z M523.8,95.3h-35.1v-6.2h35.1V95.3z M498.7,119.9v4.3
		h-6.9V99.7h28.9v20.2H498.7z M498.7,105.8v8h15v-8H498.7z"/>
</g>
</svg>
